<svg version="1.2" xmlns="http://www.w3.org/2000/svg" viewBox="0 0 41 41" width="41" height="41"><style>.a{fill:#2ecc71}</style><path fill-rule="evenodd" class="a" d="m20.3 41c-11.2 0-20.3-9.1-20.3-20.2 0-11.2 9.1-20.3 20.3-20.3 11.1 0 20.2 9.1 20.2 20.3 0 11.1-9.1 20.2-20.2 20.2zm-14.5-20.6c1.4-0.1 4.4-0.4 5.8 0.4 2.4 1.2 5 4.1 5 4.1l-5.8 6.7c2.6 2.2 5.8 3.6 9.5 3.6 7.9 0 14.4-6.5 14.4-14.4 0-1.4-0.2-2.7-0.6-4-1.2 1.4-3.6 3.2-3.6 3.2-2-0.3-1 2.2-1 2.2 0.9 5.6-2.1 6.3-2.1 6.3-4 4.1-7.1-4.9-7.1-4.9-0.8-4.9-1.2-6.5-1.2-6.5-5.1-3.2-0.1-4.4 1-4.6q0 0 0 0c0.3 0 0.2 0 0 0-1.5 0.2-1.2-0.7-2.1-2.3-0.8-1.6-1.9 0.3-2 0-0.2-0.2-0.7 3-2.1 3.5-1.5 0.4-1.1-3.5-1.1-3.5-2.8 4.4-3.7 3.2-4 1.8-1.8 2.4-2.9 5.3-3 8.4z"/></svg>