<svg version="1.2" xmlns="http://www.w3.org/2000/svg" viewBox="0 0 36 36" width="36" height="36"><style>.a{fill:#2ecc71}</style><path fill-rule="evenodd" class="a" d="m25.9 22.2h2.3c1.9 0 3.4 1.5 3.4 3.3 0 1.9-1.5 3.3-3.4 3.3h-1.4q0.3-1 0.3-2.2c0-1.6-0.4-3.1-1.2-4.4zm-7.6 13.3h-8.9c-4.9 0-8.9-4-8.9-8.9 0-2.9 1.4-5.4 3.6-7-0.9-1.9-1.4-4-1.4-6.3 0-7.3 5-13.3 11.1-13.3 2.8 0 5.4 1.2 7.3 3.3 1.2-0.7 2.5-1.1 3.8-1.1 4.9 0 8.9 5 8.9 11.1 0 2.1-0.5 4.1-1.3 5.7 2.1 1.4 3.5 3.8 3.5 6.5 0 4.3-3.5 7.8-7.8 7.8h-4.1c-1.5 1.4-3.6 2.2-5.8 2.2zm6.6-22.2c0 1.6-0.2 3.1-0.7 4.4h4c0.7-1.1 1.1-2.7 1.1-4.4 0-3.7-1.9-6.6-4.4-6.6-0.5 0-0.9 0.1-1.3 0.3 0.8 1.9 1.3 4 1.3 6.3zm-11.1-8.9c-3.7 0-6.6 4-6.6 8.9 0 4.9 2.9 8.9 6.6 8.9 3.7 0 6.7-4 6.7-8.9 0-4.9-3-8.9-6.7-8.9zm7.3 18.9c-1.9 2-4.5 3.3-7.3 3.3-2.8 0-5.3-1.3-7.3-3.3-0.9 0.8-1.6 2-1.6 3.3 0 2.5 2 4.5 4.5 4.5h8.9c2.4 0 4.4-2 4.4-4.5 0-1.3-0.6-2.5-1.6-3.3zm2.8-4.5q-0.1 0.3-0.2 0.5 0.1-0.2 0.2-0.5z"/></svg>