<svg version="1.2" xmlns="http://www.w3.org/2000/svg" viewBox="0 0 37 35" width="37" height="35"><style>.a{fill:#2ecc71}</style><path fill-rule="evenodd" class="a" d="m36 20.3l-9 9-1.5 1.5c-5.7 5.7-15.1 5.7-20.9 0-5.8-5.8-5.8-15.1 0-20.9l1.5-1.5 3 3-1.5 1.5c-4.2 4.1-4.2 10.8 0 14.9 4.1 4.1 10.8 4.1 14.9 0l1.5-1.5 9-9c0.8-0.8 2.2-0.8 3 0 0.8 0.9 0.8 2.2 0 3zm-15 3c-2.4 2.5-6.5 2.5-8.9 0-2.5-2.5-2.5-6.5 0-8.9l3-3c0.8-0.8 2.1-0.8 3 0 0.8 0.8 0.8 2.1 0 3l-3 2.9c-0.9 0.9-0.9 2.2 0 3 0.8 0.9 2.1 0.9 3 0l4.4-4.4c2.5-2.5 2.5-6.5 0-9-2.4-2.4-6.5-2.4-8.9 0l-4.5 4.5-3-3 4.5-4.5c4.1-4.1 10.8-4.1 14.9 0 4.2 4.2 4.2 10.8 0 14.9z"/></svg>